<svg width="17" height="17" viewBox="0 0 17 17" fill="none" xmlns="http://www.w3.org/2000/svg">
<path fill-rule="evenodd" clip-rule="evenodd" d="M2.375 7.33333C2.375 4.38781 4.76281 2 7.70833 2C10.6539 2 13.0417 4.38781 13.0417 7.33333C13.0417 8.76544 12.4772 10.0657 11.5586 11.0238C11.5296 11.047 11.5015 11.0721 11.4745 11.099C11.4476 11.126 11.4225 11.1541 11.3992 11.1832C10.4411 12.102 9.14065 12.6667 7.70833 12.6667C4.76281 12.6667 2.375 10.2789 2.375 7.33333ZM12.1388 13.1775C10.908 14.1121 9.37293 14.6667 7.70833 14.6667C3.65825 14.6667 0.375 11.3834 0.375 7.33333C0.375 3.28325 3.65825 0 7.70833 0C11.7584 0 15.0417 3.28325 15.0417 7.33333C15.0417 8.99768 14.4872 10.5325 13.5529 11.7632L16.3325 14.5428C16.723 14.9333 16.723 15.5665 16.3325 15.957C15.942 16.3475 15.3088 16.3475 14.9183 15.957L12.1388 13.1775Z" fill="#C4C4C4"/>
</svg>
